<svg id="Layer_1" data-name="Layer 1" xmlns="http://www.w3.org/2000/svg" viewBox="150 40 700 700"><defs><style>.cls-1{fill:#3178c6;}.cls-2{fill:#41637c;}</style></defs><polygon class="cls-1" points="412.94 321.98 407.12 205.69 355.34 268.79 282.89 238.76 379.32 389.65 412.94 321.98"/><polygon class="cls-1" points="316.85 411.3 190.53 420.83 237.16 490.22 344.02 483.73 316.85 411.3"/><polygon class="cls-1" points="333.26 420.68 394.21 584.82 414.66 484.09 333.26 420.68"/><polygon class="cls-2" points="348.6 498.31 247.72 505.92 336.46 637.94 381.09 582.48 348.6 498.31"/><polygon class="cls-2" points="394.21 584.82 344.9 650.49 362.52 676.71 391.56 658.5 400.69 615.32 386.17 624.43 394.21 584.82"/><polygon class="cls-1" points="717.1 238.76 644.65 268.79 592.87 205.69 587.05 321.98 620.67 389.65 717.1 238.76"/><polygon class="cls-1" points="599.24 389.64 552.96 386.27 500 264.21 447.03 386.27 400.76 389.64 431.05 327.31 427.12 193.73 500 80.82 572.87 193.73 568.94 327.31 599.24 389.64"/><polygon class="cls-1" points="683.14 411.3 655.98 483.73 762.83 490.22 809.47 420.83 683.14 411.3"/><polygon class="cls-1" points="585.33 484.09 605.78 584.82 666.74 420.68 585.33 484.09"/><polygon class="cls-2" points="618.9 582.48 663.53 637.94 752.27 505.92 651.4 498.31 618.9 582.48"/><polygon class="cls-2" points="613.82 624.43 599.31 615.32 608.44 658.5 637.47 676.71 655.1 650.49 605.78 584.82 613.82 624.43"/><polygon class="cls-2" points="596.79 651.2 500 590.5 403.2 651.2 411.92 608.28 500 553.06 588.08 608.28 596.79 651.2"/><polygon class="cls-1" points="570.75 480.24 595.05 595.34 500 535.73 404.94 595.34 429.26 480.24 340.11 409.54 456.37 400.77 500 300.33 543.62 400.77 659.88 409.54 570.75 480.24"/></svg>
